<svg width="184" height="166" viewBox="0 0 184 166" fill="none" xmlns="http://www.w3.org/2000/svg">
<g filter="url(#filter0_d_377_675)">
<path fill-rule="evenodd" clip-rule="evenodd" d="M160.93 136.502L96.3181 24.5081C94.394 21.1729 89.5804 21.1729 87.6563 24.5081L23.0447 136.502C21.1216 139.835 23.5274 144 27.3756 144H156.599C160.447 144 162.853 139.835 160.93 136.502ZM97.1843 24.0084C94.8753 20.0062 89.0991 20.0062 86.7901 24.0084L22.1785 136.002C19.8708 140.002 22.7577 145 27.3756 145H156.599C161.217 145 164.104 140.002 161.796 136.002L97.1843 24.0084Z" fill="white"/>
<path d="M95.885 24.758L160.497 136.751C162.227 139.751 160.062 143.5 156.599 143.5H27.3756C23.9122 143.5 21.747 139.751 23.4778 136.751L88.0894 24.758C89.8211 21.7563 94.1533 21.7563 95.885 24.758ZM97.6174 23.7585C95.116 19.4228 88.8584 19.4228 86.357 23.7585L21.7454 135.752C19.2454 140.085 22.3729 145.5 27.3756 145.5H156.599C161.602 145.5 164.729 140.085 162.229 135.752L97.6174 23.7585Z" stroke="#3425E1"/>
</g>
<defs>
<filter id="filter0_d_377_675" x="0.365234" y="0.00671387" width="183.244" height="165.993" filterUnits="userSpaceOnUse" color-interpolation-filters="sRGB">
<feFlood flood-opacity="0" result="BackgroundImageFix"/>
<feColorMatrix in="SourceAlpha" type="matrix" values="0 0 0 0 0 0 0 0 0 0 0 0 0 0 0 0 0 0 127 0" result="hardAlpha"/>
<feOffset/>
<feGaussianBlur stdDeviation="10"/>
<feComposite in2="hardAlpha" operator="out"/>
<feColorMatrix type="matrix" values="0 0 0 0 0.203922 0 0 0 0 0.145098 0 0 0 0 0.882353 0 0 0 1 0"/>
<feBlend mode="normal" in2="BackgroundImageFix" result="effect1_dropShadow_377_675"/>
<feBlend mode="normal" in="SourceGraphic" in2="effect1_dropShadow_377_675" result="shape"/>
</filter>
</defs>
</svg>
