<svg width="13" height="20" viewBox="0 0 13 20" fill="none" xmlns="http://www.w3.org/2000/svg">
<path d="M0.767289 6.546C0.819289 4.63933 1.34796 3.166 2.35329 2.126C3.37596 1.086 4.79729 0.565999 6.61729 0.565999C8.24662 0.565999 9.55529 1.008 10.5433 1.892C11.5313 2.776 12.0253 3.93733 12.0253 5.376C12.0253 6.24267 11.8 7.02267 11.3493 7.716C10.916 8.392 10.3006 8.89467 9.50329 9.224C10.5433 9.46667 11.3666 9.98667 11.9733 10.784C12.58 11.5813 12.8833 12.5433 12.8833 13.67C12.9006 15.3687 12.3113 16.7467 11.1153 17.804C9.93662 18.844 8.40262 19.364 6.51329 19.364C4.64129 19.364 3.14196 18.8527 2.01529 17.83C0.905956 16.79 0.351289 15.3947 0.351289 13.644V13.306H2.53529C2.58729 14.6233 2.95996 15.6373 3.65329 16.348C4.34662 17.0587 5.30862 17.414 6.53929 17.414C7.71796 17.414 8.67129 17.0847 9.39929 16.426C10.1446 15.75 10.5173 14.8833 10.5173 13.826C10.5173 12.7513 10.1446 11.8933 9.39929 11.252C8.67129 10.6107 7.68329 10.29 6.43529 10.29C6.12329 10.29 5.72462 10.3247 5.23929 10.394V8.522C5.48196 8.53933 5.73329 8.548 5.99329 8.548C7.13729 8.548 8.03862 8.27933 8.69729 7.742C9.37329 7.18733 9.71129 6.442 9.71129 5.506C9.71129 4.60467 9.41662 3.87667 8.82729 3.322C8.25529 2.76733 7.48396 2.49 6.51329 2.49C5.40396 2.49 4.53729 2.84533 3.91329 3.556C3.28929 4.24933 2.95996 5.246 2.92529 6.546H0.767289Z" fill="#D9D9D9"/>
</svg>
