<svg width="13" height="19" viewBox="0 0 13 19" fill="none" xmlns="http://www.w3.org/2000/svg">
<path d="M12.2333 16.998V19H0.221289C0.273289 17.9773 0.429289 17.0847 0.689289 16.322C0.949289 15.5593 1.34796 14.8747 1.88529 14.268C2.43996 13.644 2.97729 13.1327 3.49729 12.734C4.01729 12.3353 4.75396 11.8413 5.70729 11.252C7.19796 10.316 8.17729 9.614 8.64529 9.146C9.61596 8.19267 10.1013 7.13533 10.1013 5.974C10.1013 4.95133 9.77196 4.11933 9.11329 3.478C8.45462 2.81933 7.59662 2.49 6.53929 2.49C5.27396 2.49 4.36396 2.932 3.80929 3.816C3.27196 4.68267 2.98596 5.78333 2.95129 7.118H0.715289V6.624C0.715289 4.804 1.25262 3.33933 2.32729 2.23C3.41929 1.12067 4.85796 0.565999 6.64329 0.565999C8.39396 0.565999 9.78929 1.05133 10.8293 2.022C11.8693 2.99267 12.3893 4.29267 12.3893 5.922C12.3893 6.61533 12.268 7.274 12.0253 7.898C11.8 8.50467 11.54 9.016 11.2453 9.432C10.968 9.848 10.5346 10.29 9.94529 10.758C9.37329 11.226 8.89662 11.59 8.51529 11.85C8.13396 12.0927 7.58796 12.4307 6.87729 12.864C5.45596 13.7133 4.51129 14.372 4.04329 14.84C3.38462 15.4813 2.95996 16.2007 2.76929 16.998H12.2333Z" fill="#D9D9D9"/>
</svg>
